# xmcd
#
# Track frame offsets:
#	150
#	14808
#	28134
#	41528
#	55295
#	70866
#	84929
#	100012
#	113875
#	129899
#	143805
#	156578
#	170223
#	183322
#	197046
#
# Disc length: 2800 seconds
#
# Revision: 1
# Processed by: cddbd v1.5.1PL2 Copyright (c) Steve Scherf et al.
# Submitted via: audiograbber 1.83.01
#
DISCID=d20aee0f
DTITLE=Chartbuster - cb90118
DYEAR=1900
DGENRE=
TTITLE0=Bare, Bobby - All American Boy
TTITLE1=Bare, Bobby - 500 Miles Away From Home
TTITLE2=Bare, Bobby - Detroit City
TTITLE3=Bare, Bobby - Daddy What If
TTITLE4=Bare, Bobby - Marie Laveau
TTITLE5=Bare, Bobby - Miller's Cave
TTITLE6=Bare, Bobby - Four Strong Winds
TTITLE7=Bare, Bobby - It's Alright
TTITLE8=Bare, Bobby - Margie's At The Lincoln Park Inn
TTITLE9=Bare, Bobby - How I Got To Memphis
TTITLE10=Bare, Bobby - Please Don't Tell Me How The Story Ends
TTITLE11=Bare, Bobby - Come Sundown
TTITLE12=Bare, Bobby - Streets Of Baltimore
TTITLE13=Bare, Bobby - Game Of Triangles
TTITLE14=Bare, Bobby - Chicken Every Sunday
EXTD=
EXTT0=
EXTT1=
EXTT2=
EXTT3=
EXTT4=
EXTT5=
EXTT6=
EXTT7=
EXTT8=
EXTT9=
EXTT10=
EXTT11=
EXTT12=
EXTT13=
EXTT14=
PLAYORDER=
